<svg width="16" height="16" fill="none" xmlns="http://www.w3.org/2000/svg"><path d="M11.492.04H4.397C1.988.04.027 1.97.027 4.339v6.977c0 2.37 1.961 4.298 4.37 4.298h7.095c2.41 0 4.37-1.928 4.37-4.298V4.338c0-2.37-1.96-4.297-4.37-4.297zm2.965 11.275c0 1.608-1.33 2.916-2.965 2.916H4.397c-1.634 0-2.964-1.308-2.964-2.916V4.338c0-1.608 1.33-2.916 2.964-2.916h7.095c1.635 0 2.965 1.308 2.965 2.916v6.977z" fill="#282929"/><path d="M7.945 3.814c-2.25 0-4.08 1.8-4.08 4.013 0 2.212 1.83 4.012 4.08 4.012s4.08-1.8 4.08-4.012c0-2.213-1.83-4.013-4.08-4.013zm0 6.643c-1.475 0-2.675-1.18-2.675-2.63s1.2-2.631 2.675-2.631c1.475 0 2.675 1.18 2.675 2.63 0 1.451-1.2 2.631-2.675 2.631zm4.251-7.814c-.27 0-.537.108-.728.296a1.01 1.01 0 00-.302.717c0 .266.11.528.302.717a1.046 1.046 0 001.457 0c.192-.19.301-.45.301-.717 0-.267-.11-.529-.301-.717a1.043 1.043 0 00-.729-.296z" fill="#282929"/></svg>